<svg width="343" height="89" viewBox="0 0 343 89" fill="none" xmlns="http://www.w3.org/2000/svg">
<g filter="url(#filter0_d_1_8)">
<mask id="path-1-outside-1_1_8" maskUnits="userSpaceOnUse" x="4.19873" y="0.826935" width="335" height="80" fill="black">
<rect fill="white" x="4.19873" y="0.826935" width="335" height="80"/>
<path d="M47.7949 26.3398H30.25V20.9551C30.25 18.4423 30.0257 16.8419 29.5769 16.1539C29.1282 15.4658 28.3804 15.1218 27.3333 15.1218C26.1966 15.1218 25.3291 15.5855 24.7308 16.5128C24.1624 17.4402 23.8782 18.8462 23.8782 20.7308C23.8782 23.1539 24.2073 24.9786 24.8654 26.2051C25.4936 27.4316 27.2735 28.9124 30.2051 30.6474C38.6111 35.6432 43.906 39.7415 46.0898 42.9423C48.2735 46.1432 49.3654 51.3034 49.3654 58.4231C49.3654 63.5983 48.7521 67.4124 47.5257 69.8654C46.3291 72.3184 43.9957 74.3825 40.5257 76.0577C37.0556 77.703 33.0171 78.5257 28.4103 78.5257C23.3547 78.5257 19.0321 77.5684 15.4423 75.6539C11.8825 73.7393 9.54916 71.3013 8.44232 68.3398C7.33548 65.3782 6.78206 61.1752 6.78206 55.7308V50.9744H24.3269V59.8141C24.3269 62.5363 24.5663 64.2863 25.0449 65.0641C25.5534 65.8419 26.4359 66.2308 27.6923 66.2308C28.9487 66.2308 29.8761 65.7372 30.4744 64.75C31.1026 63.7628 31.4167 62.297 31.4167 60.3526C31.4167 56.0748 30.8333 53.2778 29.6667 51.9616C28.4701 50.6453 25.5235 48.4466 20.8269 45.3654C16.1304 42.2543 13.0192 39.9957 11.4936 38.5898C9.96796 37.1838 8.69659 35.2393 7.6795 32.7564C6.69232 30.2735 6.19873 27.1026 6.19873 23.2436C6.19873 17.6795 6.90172 13.6111 8.3077 11.0385C9.7436 8.46582 12.047 6.46155 15.218 5.02565C18.3889 3.55984 22.218 2.82693 26.7051 2.82693C31.6111 2.82693 35.7842 3.61967 39.2244 5.20514C42.6945 6.79061 44.9829 8.79488 46.0898 11.218C47.2265 13.6111 47.7949 17.6945 47.7949 23.468V26.3398ZM102.574 4.35258V18.891H91.3564V77H72.4654V18.891H61.2923V4.35258H102.574ZM116.072 4.35258H129.444C138.358 4.35258 144.386 4.69659 147.527 5.38463C150.698 6.07266 153.271 7.83762 155.245 10.6795C157.249 13.4915 158.251 17.9936 158.251 24.1859C158.251 29.8398 157.548 33.6389 156.142 35.5833C154.736 37.5278 151.969 38.6945 147.841 39.0833C151.58 40.0107 154.093 41.2521 155.38 42.8077C156.666 44.3633 157.459 45.7992 157.758 47.1154C158.087 48.4017 158.251 51.9765 158.251 57.8398V77H140.706V52.859C140.706 48.9701 140.392 46.562 139.764 45.6346C139.166 44.7073 137.565 44.2436 134.963 44.2436V77H116.072V4.35258ZM134.963 16.7821V32.9359C137.087 32.9359 138.568 32.6517 139.405 32.0833C140.273 31.4851 140.706 29.5855 140.706 26.3846V22.391C140.706 20.0876 140.288 18.5769 139.45 17.859C138.642 17.141 137.147 16.7821 134.963 16.7821ZM217.967 46.891C217.967 54.1902 217.787 59.3654 217.428 62.4167C217.099 65.438 216.022 68.2051 214.197 70.718C212.403 73.2308 209.965 75.1603 206.883 76.5064C203.802 77.8526 200.212 78.5257 196.114 78.5257C192.225 78.5257 188.725 77.8974 185.614 76.641C182.533 75.3547 180.05 73.4402 178.165 70.8974C176.281 68.3547 175.159 65.5876 174.8 62.5962C174.441 59.6047 174.262 54.3697 174.262 46.891V34.4616C174.262 27.1624 174.426 22.0021 174.755 18.9808C175.114 15.9295 176.191 13.1474 177.986 10.6346C179.811 8.12181 182.264 6.19232 185.345 4.84617C188.426 3.50001 192.016 2.82693 196.114 2.82693C200.003 2.82693 203.488 3.4701 206.569 4.75642C209.68 6.01283 212.178 7.91241 214.063 10.4551C215.947 12.9979 217.069 15.765 217.428 18.7564C217.787 21.7479 217.967 26.9829 217.967 34.4616V46.891ZM199.076 23.0192C199.076 19.6389 198.881 17.4851 198.492 16.5577C198.133 15.6004 197.371 15.1218 196.204 15.1218C195.217 15.1218 194.454 15.5107 193.915 16.2885C193.407 17.0363 193.153 19.2799 193.153 23.0192V56.9423C193.153 61.1603 193.317 63.7628 193.646 64.75C194.005 65.7372 194.813 66.2308 196.069 66.2308C197.356 66.2308 198.178 65.6624 198.537 64.5257C198.896 63.3889 199.076 60.6816 199.076 56.4039V23.0192ZM276.426 4.35258V77H259.868L250.041 43.9744V77H234.246V4.35258H250.041L260.631 37.0641V4.35258H276.426ZM336.59 31.0962H317.699V24.5C317.699 20.3419 317.519 17.7393 317.16 16.6923C316.801 15.6453 315.949 15.1218 314.603 15.1218C313.436 15.1218 312.643 15.5705 312.224 16.468C311.806 17.3654 311.596 19.6688 311.596 23.3782V58.2436C311.596 61.5043 311.806 63.6581 312.224 64.7051C312.643 65.7222 313.481 66.2308 314.737 66.2308C316.113 66.2308 317.041 65.6474 317.519 64.4808C318.028 63.3141 318.282 61.0406 318.282 57.6603V49.0449H314.468V38.0064H336.59V77H324.699L322.949 71.7949C321.662 74.0385 320.032 75.7286 318.058 76.8654C316.113 77.9722 313.81 78.5257 311.147 78.5257C307.977 78.5257 305 77.7628 302.218 76.2372C299.466 74.6816 297.372 72.7671 295.936 70.4936C294.5 68.2201 293.603 65.8419 293.244 63.359C292.885 60.8462 292.705 57.0919 292.705 52.0962V30.5128C292.705 23.5727 293.079 18.5321 293.827 15.391C294.575 12.25 296.714 9.37822 300.244 6.77565C303.803 4.14317 308.395 2.82693 314.019 2.82693C319.553 2.82693 324.145 3.96369 327.795 6.23719C331.444 8.5107 333.823 11.218 334.93 14.359C336.036 17.4701 336.59 22.0021 336.59 27.9551V31.0962Z"/>
</mask>
<path d="M47.7949 26.3398H30.25V20.9551C30.25 18.4423 30.0257 16.8419 29.5769 16.1539C29.1282 15.4658 28.3804 15.1218 27.3333 15.1218C26.1966 15.1218 25.3291 15.5855 24.7308 16.5128C24.1624 17.4402 23.8782 18.8462 23.8782 20.7308C23.8782 23.1539 24.2073 24.9786 24.8654 26.2051C25.4936 27.4316 27.2735 28.9124 30.2051 30.6474C38.6111 35.6432 43.906 39.7415 46.0898 42.9423C48.2735 46.1432 49.3654 51.3034 49.3654 58.4231C49.3654 63.5983 48.7521 67.4124 47.5257 69.8654C46.3291 72.3184 43.9957 74.3825 40.5257 76.0577C37.0556 77.703 33.0171 78.5257 28.4103 78.5257C23.3547 78.5257 19.0321 77.5684 15.4423 75.6539C11.8825 73.7393 9.54916 71.3013 8.44232 68.3398C7.33548 65.3782 6.78206 61.1752 6.78206 55.7308V50.9744H24.3269V59.8141C24.3269 62.5363 24.5663 64.2863 25.0449 65.0641C25.5534 65.8419 26.4359 66.2308 27.6923 66.2308C28.9487 66.2308 29.8761 65.7372 30.4744 64.75C31.1026 63.7628 31.4167 62.297 31.4167 60.3526C31.4167 56.0748 30.8333 53.2778 29.6667 51.9616C28.4701 50.6453 25.5235 48.4466 20.8269 45.3654C16.1304 42.2543 13.0192 39.9957 11.4936 38.5898C9.96796 37.1838 8.69659 35.2393 7.6795 32.7564C6.69232 30.2735 6.19873 27.1026 6.19873 23.2436C6.19873 17.6795 6.90172 13.6111 8.3077 11.0385C9.7436 8.46582 12.047 6.46155 15.218 5.02565C18.3889 3.55984 22.218 2.82693 26.7051 2.82693C31.6111 2.82693 35.7842 3.61967 39.2244 5.20514C42.6945 6.79061 44.9829 8.79488 46.0898 11.218C47.2265 13.6111 47.7949 17.6945 47.7949 23.468V26.3398ZM102.574 4.35258V18.891H91.3564V77H72.4654V18.891H61.2923V4.35258H102.574ZM116.072 4.35258H129.444C138.358 4.35258 144.386 4.69659 147.527 5.38463C150.698 6.07266 153.271 7.83762 155.245 10.6795C157.249 13.4915 158.251 17.9936 158.251 24.1859C158.251 29.8398 157.548 33.6389 156.142 35.5833C154.736 37.5278 151.969 38.6945 147.841 39.0833C151.58 40.0107 154.093 41.2521 155.38 42.8077C156.666 44.3633 157.459 45.7992 157.758 47.1154C158.087 48.4017 158.251 51.9765 158.251 57.8398V77H140.706V52.859C140.706 48.9701 140.392 46.562 139.764 45.6346C139.166 44.7073 137.565 44.2436 134.963 44.2436V77H116.072V4.35258ZM134.963 16.7821V32.9359C137.087 32.9359 138.568 32.6517 139.405 32.0833C140.273 31.4851 140.706 29.5855 140.706 26.3846V22.391C140.706 20.0876 140.288 18.5769 139.45 17.859C138.642 17.141 137.147 16.7821 134.963 16.7821ZM217.967 46.891C217.967 54.1902 217.787 59.3654 217.428 62.4167C217.099 65.438 216.022 68.2051 214.197 70.718C212.403 73.2308 209.965 75.1603 206.883 76.5064C203.802 77.8526 200.212 78.5257 196.114 78.5257C192.225 78.5257 188.725 77.8974 185.614 76.641C182.533 75.3547 180.05 73.4402 178.165 70.8974C176.281 68.3547 175.159 65.5876 174.8 62.5962C174.441 59.6047 174.262 54.3697 174.262 46.891V34.4616C174.262 27.1624 174.426 22.0021 174.755 18.9808C175.114 15.9295 176.191 13.1474 177.986 10.6346C179.811 8.12181 182.264 6.19232 185.345 4.84617C188.426 3.50001 192.016 2.82693 196.114 2.82693C200.003 2.82693 203.488 3.4701 206.569 4.75642C209.68 6.01283 212.178 7.91241 214.063 10.4551C215.947 12.9979 217.069 15.765 217.428 18.7564C217.787 21.7479 217.967 26.9829 217.967 34.4616V46.891ZM199.076 23.0192C199.076 19.6389 198.881 17.4851 198.492 16.5577C198.133 15.6004 197.371 15.1218 196.204 15.1218C195.217 15.1218 194.454 15.5107 193.915 16.2885C193.407 17.0363 193.153 19.2799 193.153 23.0192V56.9423C193.153 61.1603 193.317 63.7628 193.646 64.75C194.005 65.7372 194.813 66.2308 196.069 66.2308C197.356 66.2308 198.178 65.6624 198.537 64.5257C198.896 63.3889 199.076 60.6816 199.076 56.4039V23.0192ZM276.426 4.35258V77H259.868L250.041 43.9744V77H234.246V4.35258H250.041L260.631 37.0641V4.35258H276.426ZM336.59 31.0962H317.699V24.5C317.699 20.3419 317.519 17.7393 317.16 16.6923C316.801 15.6453 315.949 15.1218 314.603 15.1218C313.436 15.1218 312.643 15.5705 312.224 16.468C311.806 17.3654 311.596 19.6688 311.596 23.3782V58.2436C311.596 61.5043 311.806 63.6581 312.224 64.7051C312.643 65.7222 313.481 66.2308 314.737 66.2308C316.113 66.2308 317.041 65.6474 317.519 64.4808C318.028 63.3141 318.282 61.0406 318.282 57.6603V49.0449H314.468V38.0064H336.59V77H324.699L322.949 71.7949C321.662 74.0385 320.032 75.7286 318.058 76.8654C316.113 77.9722 313.81 78.5257 311.147 78.5257C307.977 78.5257 305 77.7628 302.218 76.2372C299.466 74.6816 297.372 72.7671 295.936 70.4936C294.5 68.2201 293.603 65.8419 293.244 63.359C292.885 60.8462 292.705 57.0919 292.705 52.0962V30.5128C292.705 23.5727 293.079 18.5321 293.827 15.391C294.575 12.25 296.714 9.37822 300.244 6.77565C303.803 4.14317 308.395 2.82693 314.019 2.82693C319.553 2.82693 324.145 3.96369 327.795 6.23719C331.444 8.5107 333.823 11.218 334.93 14.359C336.036 17.4701 336.59 22.0021 336.59 27.9551V31.0962Z" stroke="#F2F2F2" stroke-width="3.82906" shape-rendering="crispEdges" mask="url(#path-1-outside-1_1_8)"/>
<path d="M47.7949 26.3398H30.25V20.9551C30.25 18.4423 30.0257 16.8419 29.5769 16.1539C29.1282 15.4658 28.3804 15.1218 27.3333 15.1218C26.1966 15.1218 25.3291 15.5855 24.7308 16.5128C24.1624 17.4402 23.8782 18.8462 23.8782 20.7308C23.8782 23.1539 24.2073 24.9786 24.8654 26.2051C25.4936 27.4316 27.2735 28.9124 30.2051 30.6474C38.6111 35.6432 43.906 39.7415 46.0898 42.9423C48.2735 46.1432 49.3654 51.3034 49.3654 58.4231C49.3654 63.5983 48.7521 67.4124 47.5257 69.8654C46.3291 72.3184 43.9957 74.3825 40.5257 76.0577C37.0556 77.703 33.0171 78.5257 28.4103 78.5257C23.3547 78.5257 19.0321 77.5684 15.4423 75.6539C11.8825 73.7393 9.54916 71.3013 8.44232 68.3398C7.33548 65.3782 6.78206 61.1752 6.78206 55.7308V50.9744H24.3269V59.8141C24.3269 62.5363 24.5663 64.2863 25.0449 65.0641C25.5534 65.8419 26.4359 66.2308 27.6923 66.2308C28.9487 66.2308 29.8761 65.7372 30.4744 64.75C31.1026 63.7628 31.4167 62.297 31.4167 60.3526C31.4167 56.0748 30.8333 53.2778 29.6667 51.9616C28.4701 50.6453 25.5235 48.4466 20.8269 45.3654C16.1304 42.2543 13.0192 39.9957 11.4936 38.5898C9.96796 37.1838 8.69659 35.2393 7.6795 32.7564C6.69232 30.2735 6.19873 27.1026 6.19873 23.2436C6.19873 17.6795 6.90172 13.6111 8.3077 11.0385C9.7436 8.46582 12.047 6.46155 15.218 5.02565C18.3889 3.55984 22.218 2.82693 26.7051 2.82693C31.6111 2.82693 35.7842 3.61967 39.2244 5.20514C42.6945 6.79061 44.9829 8.79488 46.0898 11.218C47.2265 13.6111 47.7949 17.6945 47.7949 23.468V26.3398ZM102.574 4.35258V18.891H91.3564V77H72.4654V18.891H61.2923V4.35258H102.574ZM116.072 4.35258H129.444C138.358 4.35258 144.386 4.69659 147.527 5.38463C150.698 6.07266 153.271 7.83762 155.245 10.6795C157.249 13.4915 158.251 17.9936 158.251 24.1859C158.251 29.8398 157.548 33.6389 156.142 35.5833C154.736 37.5278 151.969 38.6945 147.841 39.0833C151.58 40.0107 154.093 41.2521 155.38 42.8077C156.666 44.3633 157.459 45.7992 157.758 47.1154C158.087 48.4017 158.251 51.9765 158.251 57.8398V77H140.706V52.859C140.706 48.9701 140.392 46.562 139.764 45.6346C139.166 44.7073 137.565 44.2436 134.963 44.2436V77H116.072V4.35258ZM134.963 16.7821V32.9359C137.087 32.9359 138.568 32.6517 139.405 32.0833C140.273 31.4851 140.706 29.5855 140.706 26.3846V22.391C140.706 20.0876 140.288 18.5769 139.45 17.859C138.642 17.141 137.147 16.7821 134.963 16.7821ZM217.967 46.891C217.967 54.1902 217.787 59.3654 217.428 62.4167C217.099 65.438 216.022 68.2051 214.197 70.718C212.403 73.2308 209.965 75.1603 206.883 76.5064C203.802 77.8526 200.212 78.5257 196.114 78.5257C192.225 78.5257 188.725 77.8974 185.614 76.641C182.533 75.3547 180.05 73.4402 178.165 70.8974C176.281 68.3547 175.159 65.5876 174.8 62.5962C174.441 59.6047 174.262 54.3697 174.262 46.891V34.4616C174.262 27.1624 174.426 22.0021 174.755 18.9808C175.114 15.9295 176.191 13.1474 177.986 10.6346C179.811 8.12181 182.264 6.19232 185.345 4.84617C188.426 3.50001 192.016 2.82693 196.114 2.82693C200.003 2.82693 203.488 3.4701 206.569 4.75642C209.68 6.01283 212.178 7.91241 214.063 10.4551C215.947 12.9979 217.069 15.765 217.428 18.7564C217.787 21.7479 217.967 26.9829 217.967 34.4616V46.891ZM199.076 23.0192C199.076 19.6389 198.881 17.4851 198.492 16.5577C198.133 15.6004 197.371 15.1218 196.204 15.1218C195.217 15.1218 194.454 15.5107 193.915 16.2885C193.407 17.0363 193.153 19.2799 193.153 23.0192V56.9423C193.153 61.1603 193.317 63.7628 193.646 64.75C194.005 65.7372 194.813 66.2308 196.069 66.2308C197.356 66.2308 198.178 65.6624 198.537 64.5257C198.896 63.3889 199.076 60.6816 199.076 56.4039V23.0192ZM276.426 4.35258V77H259.868L250.041 43.9744V77H234.246V4.35258H250.041L260.631 37.0641V4.35258H276.426ZM336.59 31.0962H317.699V24.5C317.699 20.3419 317.519 17.7393 317.16 16.6923C316.801 15.6453 315.949 15.1218 314.603 15.1218C313.436 15.1218 312.643 15.5705 312.224 16.468C311.806 17.3654 311.596 19.6688 311.596 23.3782V58.2436C311.596 61.5043 311.806 63.6581 312.224 64.7051C312.643 65.7222 313.481 66.2308 314.737 66.2308C316.113 66.2308 317.041 65.6474 317.519 64.4808C318.028 63.3141 318.282 61.0406 318.282 57.6603V49.0449H314.468V38.0064H336.59V77H324.699L322.949 71.7949C321.662 74.0385 320.032 75.7286 318.058 76.8654C316.113 77.9722 313.81 78.5257 311.147 78.5257C307.977 78.5257 305 77.7628 302.218 76.2372C299.466 74.6816 297.372 72.7671 295.936 70.4936C294.5 68.2201 293.603 65.8419 293.244 63.359C292.885 60.8462 292.705 57.0919 292.705 52.0962V30.5128C292.705 23.5727 293.079 18.5321 293.827 15.391C294.575 12.25 296.714 9.37822 300.244 6.77565C303.803 4.14317 308.395 2.82693 314.019 2.82693C319.553 2.82693 324.145 3.96369 327.795 6.23719C331.444 8.5107 333.823 11.218 334.93 14.359C336.036 17.4701 336.59 22.0021 336.59 27.9551V31.0962Z" stroke="black" stroke-opacity="0.46" stroke-width="3.82906" shape-rendering="crispEdges" mask="url(#path-1-outside-1_1_8)"/>
</g>
<defs>
<filter id="filter0_d_1_8" x="0.45512" y="0.912399" width="341.878" height="87.1859" filterUnits="userSpaceOnUse" color-interpolation-filters="sRGB">
<feFlood flood-opacity="0" result="BackgroundImageFix"/>
<feColorMatrix in="SourceAlpha" type="matrix" values="0 0 0 0 0 0 0 0 0 0 0 0 0 0 0 0 0 0 127 0" result="hardAlpha"/>
<feOffset dy="3.82906"/>
<feGaussianBlur stdDeviation="1.91453"/>
<feComposite in2="hardAlpha" operator="out"/>
<feColorMatrix type="matrix" values="0 0 0 0 0 0 0 0 0 0 0 0 0 0 0 0 0 0 0.25 0"/>
<feBlend mode="normal" in2="BackgroundImageFix" result="effect1_dropShadow_1_8"/>
<feBlend mode="normal" in="SourceGraphic" in2="effect1_dropShadow_1_8" result="shape"/>
</filter>
</defs>
</svg>
